# xmcd CD database file
#
# Track frame offsets:
#	150
#	20874
#	40341
#	60356
#	82528
#	105325
#	123284
#	144386
#	163146
#	185403
#	201132
#
# Disc length: 2781 seconds
#
# Revision: 0
# Processed by: cddbd v1.5.1PL0 Copyright (c) Steve Scherf et al.
# Submitted via: CDex 1.50
#
DISCID=870adb0b
DTITLE=Anael - Light of Refinement
DYEAR=1997
DGENRE=New Age
TTITLE0=Kyrie
TTITLE1=One Brief Dream
TTITLE2=My Lifetime
TTITLE3=In Silence
TTITLE4=Alien Mind
TTITLE5=Birthing Clouds
TTITLE6=Upon a Restless Night
TTITLE7=To Lift You
TTITLE8=Dona Nobis Pacem
TTITLE9=Born of Forgiveness
TTITLE10=The Road (Send Some Love)
EXTD=YEAR: 1997
EXTT0=
EXTT1=
EXTT2=
EXTT3=
EXTT4=
EXTT5=
EXTT6=
EXTT7=
EXTT8=
EXTT9=
EXTT10=
PLAYORDER=
